<svg xmlns="http://www.w3.org/2000/svg" viewBox="0 0 1200 630" role="img" aria-label="Gomoku social preview">
  <defs>
    <linearGradient id="bg" x1="0" x2="1" y1="0" y2="1">
      <stop offset="0%" stop-color="#f7ebcf"/>
      <stop offset="100%" stop-color="#d4ab6e"/>
    </linearGradient>
    <linearGradient id="panel" x1="0" x2="0" y1="0" y2="1">
      <stop offset="0%" stop-color="#fff8ea" stop-opacity="0.92"/>
      <stop offset="100%" stop-color="#efd2a1" stop-opacity="0.88"/>
    </linearGradient>
    <radialGradient id="blackStone" cx="32%" cy="28%" r="70%">
      <stop offset="0%" stop-color="#666"/>
      <stop offset="100%" stop-color="#171717"/>
    </radialGradient>
    <radialGradient id="whiteStone" cx="32%" cy="28%" r="70%">
      <stop offset="0%" stop-color="#fff"/>
      <stop offset="100%" stop-color="#d8cdc1"/>
    </radialGradient>
  </defs>

  <rect width="1200" height="630" fill="url(#bg)"/>
  <circle cx="140" cy="110" r="130" fill="#fff1c9" fill-opacity="0.6"/>
  <circle cx="1040" cy="530" r="170" fill="#a14e22" fill-opacity="0.12"/>

  <rect x="56" y="56" width="388" height="518" rx="34" fill="url(#panel)" stroke="#9b6a3d" stroke-opacity="0.16"/>
  <text x="96" y="126" font-family="'Space Grotesk', Arial, sans-serif" font-size="20" letter-spacing="5" fill="#7b573f">GOMOKU WEB GAME</text>
  <text x="96" y="214" font-family="'Noto Serif TC', Georgia, serif" font-size="62" font-weight="700" fill="#2d1b10">Play Gomoku</text>
  <text x="96" y="276" font-family="'Noto Serif TC', Georgia, serif" font-size="62" font-weight="700" fill="#2d1b10">Online Free</text>
  <text x="96" y="342" font-family="'Space Grotesk', Arial, sans-serif" font-size="28" fill="#6f4b34">Human vs robot. Mobile-friendly.</text>
  <text x="96" y="386" font-family="'Space Grotesk', Arial, sans-serif" font-size="28" fill="#6f4b34">Instant browser play. No download.</text>

  <rect x="504" y="82" width="622" height="466" rx="34" fill="url(#panel)" stroke="#9b6a3d" stroke-opacity="0.16"/>
  <rect x="554" y="132" width="522" height="366" rx="28" fill="#ebcf99"/>

  <g stroke="#5a3a1f" stroke-width="3" opacity="0.8">
    <path d="M598 152v326M642 152v326M686 152v326M730 152v326M774 152v326M818 152v326M862 152v326M906 152v326M950 152v326M994 152v326M1038 152v326"/>
    <path d="M576 174h478M576 218h478M576 262h478M576 306h478M576 350h478M576 394h478M576 438h478M576 482h478"/>
  </g>

  <circle cx="752" cy="284" r="18" fill="url(#blackStone)"/>
  <circle cx="796" cy="328" r="18" fill="url(#blackStone)"/>
  <circle cx="840" cy="372" r="18" fill="url(#blackStone)"/>
  <circle cx="708" cy="328" r="18" fill="url(#whiteStone)" stroke="#cabfae" stroke-width="2"/>
  <circle cx="752" cy="372" r="18" fill="url(#whiteStone)" stroke="#cabfae" stroke-width="2"/>
  <circle cx="884" cy="240" r="18" fill="url(#whiteStone)" stroke="#cabfae" stroke-width="2"/>

  <text x="556" y="576" font-family="'Space Grotesk', Arial, sans-serif" font-size="26" fill="#6f4b34">https://nealyip.github.io/gomoku/</text>
</svg>
